# xmcd
#
# Track frame offsets:
#	150
#	14247
#	34280
#	49515
#	67162
#	81827
#	102525
#	117322
#	136245
#	153005
#	170777
#
# Disc length: 2450 seconds
#
# Revision: 0
# Processed by: cddbd v1.5.2PL0 Copyright (c) Steve Scherf et al.
# Submitted via: audiograbber 1.83.01
#
DISCID=9a09900b
DTITLE=The Oak Ridge Boys - Voices
DYEAR=1999
DGENRE=Country
TTITLE0=Baby When Your Heart Breaks Down
TTITLE1=Where the Sun Always Shines
TTITLE2=Deep in Louisiana
TTITLE3=Lady My Love
TTITLE4=What'll I Do
TTITLE5=New Orleans
TTITLE6=The Perfect Love
TTITLE7=I'd Still be Waiting
TTITLE8=Old hearts
TTITLE9=Ain't no Short Way Home
TTITLE10=If All I Had Left
EXTD=YEAR: 1999 ID3G:   2
EXTT0=
EXTT1=
EXTT2=
EXTT3=
EXTT4=
EXTT5=
EXTT6=
EXTT7=
EXTT8=
EXTT9=
EXTT10=
PLAYORDER=
